<?xml version="1.0" standalone="no"?>
<!DOCTYPE svg PUBLIC "-//W3C//DTD SVG 20010904//EN"
 "http://www.w3.org/TR/2001/REC-SVG-20010904/DTD/svg10.dtd">
<svg version="1.0" xmlns="http://www.w3.org/2000/svg"
 width="263.000000pt" height="263.000000pt" viewBox="0 0 263.000000 263.000000"
 preserveAspectRatio="xMidYMid meet">
<metadata>
Created by potrace 1.14, written by Peter Selinger 2001-2017
</metadata>
<g transform="translate(0.000000,263.000000) scale(0.100000,-0.100000)"
fill="#000000" stroke="none">
<path d="M525 2563 c-221 -62 -362 -237 -410 -511 -12 -72 -13 -255 -1 -311
25 -115 55 -185 112 -266 91 -131 145 -163 524 -311 216 -84 280 -131 334
-244 29 -61 31 -72 31 -180 -1 -96 -5 -125 -24 -173 -64 -162 -206 -250 -390
-242 -42 1 -98 10 -126 20 -57 20 -138 71 -177 112 -74 77 -131 224 -145 368
l-6 66 -46 -6 c-51 -7 -108 -16 -131 -20 -8 -2 -19 -4 -24 -4 -11 -1 1 -146
20 -240 60 -292 205 -480 431 -558 70 -24 93 -27 218 -27 129 -1 145 1 208 26
145 58 243 151 321 305 124 247 111 627 -30 838 -99 148 -195 207 -534 328
-120 43 -218 91 -264 129 -137 113 -139 386 -4 529 66 71 160 100 299 94 207
-8 327 -146 356 -408 l6 -59 71 7 c39 3 80 8 91 10 11 2 26 4 34 4 19 1 9 134
-19 248 -78 319 -293 498 -589 492 -47 -1 -108 -8 -136 -16z"/>
<path d="M1440 1960 l0 -590 75 0 75 0 1 173 c0 94 1 316 1 492 l0 320 23 -65
c13 -36 89 -256 168 -490 l144 -425 74 0 74 0 17 50 c9 28 62 183 118 345 55
162 121 356 147 430 25 74 48 138 52 142 3 4 5 -213 4 -482 l-2 -490 77 0 77
0 0 588 0 587 -109 0 -110 0 -19 -55 c-10 -30 -84 -246 -163 -480 -79 -234
-147 -431 -149 -439 -3 -8 -81 209 -172 483 l-167 496 -118 0 -118 0 0 -590z"/>
<path d="M1540 650 l0 -590 79 0 79 0 0 263 c0 144 1 270 1 280 1 16 22 17
300 17 230 0 300 -3 303 -12 2 -7 4 -133 3 -280 l0 -268 80 0 80 0 0 590 0
590 -80 0 -80 0 0 -237 0 -238 -302 -3 -303 -2 -1 32 c-1 18 -1 126 0 241 l0
207 -79 0 -80 0 0 -590z"/>
</g>
</svg>
